<?xml version="1.0" encoding="utf-8"?>
<!-- Generator: Adobe Illustrator 16.0.4, SVG Export Plug-In . SVG Version: 6.00 Build 0)  -->
<!DOCTYPE svg PUBLIC "-//W3C//DTD SVG 1.1//EN" "http://www.w3.org/Graphics/SVG/1.1/DTD/svg11.dtd">
<svg version="1.1" id="レイヤー_1" xmlns="http://www.w3.org/2000/svg" xmlns:xlink="http://www.w3.org/1999/xlink" x="0px"
	 y="0px" width="360px" height="39px" viewBox="0 0 360 39" enable-background="new 0 0 360 39" xml:space="preserve">
<g>
	<g>
		<g>
			<path fill="#231815" d="M19.075,12.513L17.47,8.192c-1.567-0.763-2.829-1.07-4.435-1.07c-5.16,0-9.136,3.442-9.136,11.164
				c0,8.642,5.007,11.315,9.136,11.315c1.758,0,2.982-0.267,4.587-0.994l1.682-4.548h0.534c0,1.029-0.076,2.063-0.076,3.058
				c0,1.029,0.076,2.064,0.076,3.094c-2.101,0.497-4.204,0.881-6.345,0.881C6.423,31.091,0,26.62,0,19.089
				C0,11.747,6.078,5.631,13.647,5.631c1.949,0,4.013,0.154,5.963,0.612c0,1.032-0.077,2.103-0.077,3.135s0.077,2.063,0.077,3.135
				H19.075z"/>
			<path fill="#231815" d="M24.885,30.097c1.759-0.573,3.21-0.916,3.288-1.49c0.114-0.763,0.114-15.178,0.114-19.726
				c0-1.605-0.152-2.983-0.268-3.25c-0.077-0.192-0.343-0.346-0.611-0.42l-2.255-0.727V3.949c2.1,0,4.204-0.074,6.27-0.305
				c-0.078,2.6-0.192,5.199-0.23,7.798l-0.077,4.129h0.077c1.567-2.216,3.897-3.212,6.497-3.212c2.41,0,5.773,0.65,5.773,4.549
				c0,1.186-0.077,3.175-0.077,6.69c0,4.051,0,4.625,0.344,5.275c0.306,0.609,2.064,0.958,3.057,1.224v0.533
				c-1.947-0.148-2.713-0.303-4.854-0.303c-2.025,0-3.096,0.154-4.93,0.303v-0.533c1.911-0.496,2.866-0.691,3.21-1.337
				c0.269-0.537,0.269-2.944,0.269-9.635c0-2.713-0.689-5.275-4.32-5.275c-3.019,0-4.969,2.179-4.969,5.239v5.041
				c0,1.496,0.038,4.323,0.343,4.63c0.537,0.574,2.256,1.071,3.135,1.337v0.533c-1.605-0.148-3.135-0.303-4.739-0.303
				c-1.721,0-3.402,0.154-5.046,0.303V30.097z"/>
			<path fill="#231815" d="M53.249,25.703c0-4.132,4.626-4.667,7.722-4.667v3.172c0,3.058-2.027,4.819-4.473,4.819
				C54.319,29.027,53.249,27.726,53.249,25.703z M60.971,30.63c0.917-0.148,1.872-0.303,2.789-0.303c0.957,0,1.95,0.154,2.944,0.303
				v-0.533c-2.409-0.461-2.829-0.65-2.829-2.483V16.946c0-3.555-2.676-4.587-5.734-4.587c-2.982,0-5.199,1.529-6.995,4.397
				l0.955,0.535c1.147-1.721,2.982-2.942,5.085-2.942c2.179,0,3.86,0.802,3.86,3.629v2.025h-0.269c-6.305,0-10.74,1.951-10.74,6.309
				c0,3.289,2.255,4.702,5.046,4.702s4.433-1.644,5.924-3.631h0.077L60.971,30.63z"/>
			<path fill="#231815" d="M74.119,21.151c0-4.433,1.491-7.99,5.353-7.99c4.205,0,5.503,5.43,5.503,8.794s-1.029,8.256-5.083,8.256
				C76.106,30.21,74.119,26.2,74.119,21.151z M88.417,21.151c0-5.084-3.365-8.792-8.525-8.792c-5.542,0-9.212,4.054-9.212,9.442
				c0,5.315,3.439,9.213,8.715,9.213C85.32,31.014,88.417,26.005,88.417,21.151z"/>
			<path fill="#231815" d="M92.355,30.097l2.443-0.916c0.537-0.195,0.804-0.421,0.804-2.715v-6.04c0-5.811-0.036-6.003-0.84-6.192
				l-2.407-0.65v-0.535c2.141,0,4.241-0.154,6.305-0.308c-0.038,1.186-0.112,2.41-0.112,3.519h0.074
				c0.878-1.683,3.096-3.9,5.391-3.9c0.497,0,0.955,0.115,1.414,0.23v3.593h-0.305c-0.728-0.727-1.722-1.146-2.83-1.146
				c-2.177,0-3.785,1.567-3.785,4.816v6.229c0,2.484,0.269,2.828,0.919,3.022l2.942,0.993v0.533
				c-1.756-0.148-3.438-0.303-5.16-0.303c-1.642,0-3.25,0.154-4.853,0.303V30.097z"/>
			<path fill="#231815" d="M121.635,22.07c0,4.739-1.032,7.454-4.663,7.454c-2.446,0-5.046-3.021-5.046-8.793
				c0-5.353,2.827-7.34,4.702-7.34C120.26,13.391,121.635,16.792,121.635,22.07z M108.715,22.492c0,5.234,3.247,8.522,6.994,8.522
				c2.983,0,4.663-1.183,5.964-3.288h0.077c0,0.917-0.041,1.91-0.115,2.904c1.108-0.148,2.215-0.303,3.326-0.303
				c0.917,0,1.798,0.154,2.715,0.303v-0.533l-2.256-0.65c-0.766-0.23-0.879-0.917-0.879-1.531V11.442
				c0-2.599,0.151-5.198,0.229-7.798c-2.067,0.23-4.167,0.305-6.27,0.305v0.536l2.256,0.727c0.267,0.074,0.533,0.228,0.61,0.42
				c0.117,0.267,0.23,1.645,0.269,3.25l0.074,4.969c-1.373-0.879-2.904-1.491-4.853-1.491
				C112.423,12.359,108.715,16.833,108.715,22.492z"/>
			<path fill="#231815" d="M130.847,30.097l2.179-0.691c0.843-0.266,0.956-0.687,0.956-6.688c0-7.986-0.189-8.256-1.187-8.562
				l-1.948-0.571v-0.535c2.104,0,4.205-0.077,6.269-0.308c-0.076,0.535-0.23,3.823-0.23,6.192v7.646
				c0,1.875,0.192,2.603,1.225,2.904l1.91,0.614v0.533c-1.567-0.148-3.17-0.303-4.737-0.303c-1.529,0-3.058,0.154-4.436,0.303
				V30.097z M137.151,6.817c0,1.145-0.914,2.1-2.062,2.1s-2.064-0.956-2.064-2.062c0-1.147,0.917-2.064,2.064-2.064
				S137.151,5.708,137.151,6.817z"/>
			<path fill="#231815" d="M158.18,17.673h-0.612l-0.497-1.719c-0.384-1.188-1.106-2.333-3.897-2.333
				c-3.903,0-5.695,3.401-5.695,7.071c0,4.165,2.407,8.601,6.917,8.601c1.337,0,2.563-0.267,3.67-0.881l0.343,0.728
				c-1.604,1.224-4.013,1.874-6.192,1.874c-4.625,0-8.18-3.826-8.18-8.716c0-5.734,4.358-9.939,10.17-9.939
				c1.452,0,2.942,0.23,4.356,0.535L158.18,17.673z"/>
			<path fill="#231815" d="M178.398,12.741c0-1.683,0.117-3.362,0.23-5.083c0.804-0.151,1.644-0.305,2.561-0.305
				c5.772,0,10.208,3.324,10.208,10.971c0,8.864-4.436,11.047-9.826,11.047c-0.843,0-1.91-0.077-2.942-0.154
				c-0.23-2.448-0.113-1.301-0.23-4.24V12.741z M175.189,25.662c0,2.945-0.154,3.099-1.225,3.442l-2.942,0.993v0.533
				c1.375-0.148,2.674-0.303,4.013-0.303c1.99,0,3.9,0.303,8.26,0.303c7.413,0,11.77-5.619,11.77-12.194
				c0-8.295-6.878-12.346-12.535-12.346c-3.059,0-5.622,0.307-6.92,0.307c-1.493,0-2.942-0.153-4.587-0.307v0.535l3.209,1.071
				c0.843,0.266,0.958,0.535,0.958,4.128V25.662z"/>
			<path fill="#231815" d="M212.382,18.247c-0.573,0.039-1.109,0.039-2.33,0.077l-6.08,0.151c0.538-3.171,2.218-5.314,4.548-5.314
				c2.715,0,3.862,1.836,3.862,4.397V18.247z M214.712,27.573c-1.105,1.146-2.638,1.721-4.317,1.721
				c-4.513,0-6.576-4.317-6.576-8.562c0-0.423,0.041-0.879,0.076-1.301h10.817c0.84-0.039,1.111-0.267,1.111-1.184
				c0-3.326-2.141-5.888-6.652-5.888c-5.886,0-8.792,4.895-8.792,9.52c0,5.387,3.25,9.136,8.105,9.136
				c2.638,0,5.007-0.769,6.766-2.75L214.712,27.573z"/>
			<path fill="#231815" d="M221.174,26.2h0.423c0.305,1.373,1.029,2.786,1.336,3.017c0.497,0.42,1.376,0.769,2.446,0.769
				c1.913,0,3.746-0.958,3.746-3.176c0-4.78-8.522-3.975-8.522-9.402c0-2.103,1.946-5.048,6.689-5.048
				c0.916,0,3.209,0.27,3.975,0.459l-0.23,4.016h-0.42l-0.574-1.378c-0.458-1.07-0.993-2.064-3.4-2.064
				c-1.952,0-3.135,1.375-3.135,2.906c0,4.549,8.522,3.324,8.522,9.441c0,2.295-1.528,5.275-7.605,5.275
				c-1.417,0-2.484-0.23-3.479-0.343L221.174,26.2z"/>
			<path fill="#231815" d="M236.577,30.097l2.18-0.691c0.843-0.266,0.958-0.687,0.958-6.688c0-7.986-0.192-8.256-1.186-8.562
				l-1.952-0.571v-0.535c2.105,0,4.205-0.077,6.27-0.308c-0.076,0.535-0.23,3.823-0.23,6.192v7.646c0,1.875,0.195,2.603,1.225,2.904
				l1.91,0.614v0.533c-1.564-0.148-3.17-0.303-4.738-0.303c-1.531,0-3.058,0.154-4.436,0.303V30.097z M242.886,6.817
				c0,1.145-0.917,2.1-2.062,2.1c-1.146,0-2.066-0.956-2.066-2.062c0-1.147,0.92-2.064,2.066-2.064
				C241.969,4.792,242.886,5.708,242.886,6.817z"/>
			<path fill="#231815" d="M251.754,34.108c0-1.757,1.49-3.094,2.753-4.123l4.93,0.497c2.525,0.266,3.099,0.84,3.099,2.402
				c0,2.832-3.134,4.512-6.653,4.512C253.972,37.396,251.754,36.326,251.754,34.108z M265.818,12.741l-4.966,0.384
				c-0.919-0.461-2.714-0.766-3.746-0.766c-3.975,0-7.378,3.097-7.378,7.071c0,2.524,1.493,4.132,3.708,5.008
				c-1.529,1.337-2.907,3.058-2.907,3.861c0,1.184,2.218,1.532,3.059,1.491v0.076c-3.859,2.603-4.738,3.673-4.738,5.466
				c0,2.561,3.058,3.329,5.353,3.329c4.855,0,11.237-2.448,11.237-7.263c0-1.645-1.032-3.1-4.243-3.365l-5.389-0.461
				c-0.766-0.077-2.371-0.308-2.371-1.373c0-0.461,0.42-1.265,0.65-1.572c0.343,0.117,0.879,0.23,2.062,0.23
				c3.862,0,7.801-2.673,7.801-7.108c0-1.108-0.343-2.294-1.07-3.019l3.096-1.187L265.818,12.741z M260.737,18.667
				c0,3.362-1.336,5.162-3.897,5.162c-2.561,0-3.9-2.524-3.9-5.277c0-2.522,1.147-5.391,3.823-5.391
				C259.785,13.161,260.737,16.106,260.737,18.667z"/>
			<path fill="#231815" d="M269.798,13.048c2.064,0,4.164-0.154,6.231-0.308l-0.115,2.83h0.076c1.567-2.216,3.898-3.212,6.459-3.212
				c2.448,0,5.813,0.65,5.813,4.549c0,1.186-0.077,3.175-0.077,6.69c0,4.051,0,4.625,0.344,5.275
				c0.305,0.609,2.063,0.958,3.058,1.224v0.533c-1.951-0.148-2.715-0.303-4.855-0.303c-2.023,0-3.097,0.154-4.933,0.303v-0.533
				c1.913-0.496,2.868-0.691,3.212-1.337c0.266-0.537,0.266-2.944,0.266-9.635c0-2.713-0.686-5.275-4.317-5.275
				c-3.02,0-4.969,2.179-4.969,5.239v5.041c0,1.496,0.039,4.323,0.344,4.63c0.538,0.574,2.256,1.071,3.135,1.337v0.533
				c-1.606-0.148-3.135-0.303-4.74-0.303c-1.719,0-3.404,0.154-5.048,0.303v-0.533c1.759-0.573,3.214-0.916,3.288-1.49
				c0.118-0.763,0.118-1.874,0.118-7.11c0-6.5-0.23-7.111-1.378-7.416l-1.911-0.497V13.048z"/>
		</g>
	</g>
	<g>
		<g>
			<path fill="#502067" d="M323.147,18.426c0-6.817,3.709-12.767,9.215-15.952C329.65,0.901,326.508,0,323.147,0
				c-10.174,0-18.423,8.251-18.423,18.426c0,10.176,8.249,18.427,18.423,18.427c3.36,0,6.503-0.906,9.215-2.474
				C326.856,31.194,323.147,25.242,323.147,18.426z"/>
		</g>
	</g>
	<g>
		<g>
			<path fill="#9FD7EC" d="M341.571,0c-2.74,0-5.348,0.604-7.686,1.683c5.929,3.8,8.557,10.796,7.553,18.995
				c0.927-7.565-2.868-14.618-9.076-18.206c-5.506,3.186-9.215,9.138-9.215,15.955c0,10.176,8.252,18.427,18.424,18.427
				c10.178,0,18.429-8.251,18.429-18.427C360,8.251,351.749,0,341.571,0z"/>
			
				<linearGradient id="SVGID_1_" gradientUnits="userSpaceOnUse" x1="-1260.644" y1="2056.9014" x2="-1260.644" y2="2214.3071" gradientTransform="matrix(0.1239 0 0 0.1239 488.556 -253.6548)">
				<stop  offset="0" style="stop-color:#502067"/>
				<stop  offset="0.1002" style="stop-color:#5F4280"/>
				<stop  offset="0.2527" style="stop-color:#726FA0"/>
				<stop  offset="0.4063" style="stop-color:#8295BC"/>
				<stop  offset="0.5585" style="stop-color:#8FB2D1"/>
				<stop  offset="0.709" style="stop-color:#98C6E0"/>
				<stop  offset="0.8571" style="stop-color:#9DD3E9"/>
				<stop  offset="1" style="stop-color:#9FD7EC"/>
			</linearGradient>
			<path fill="url(#SVGID_1_)" d="M341.438,20.677c0.927-7.565-2.868-14.618-9.074-18.206c-5.508,3.186-9.217,9.138-9.217,15.955
				c0,0.763,0.052,1.516,0.144,2.253"/>
		</g>
	</g>
</g>
</svg>
